<?xml version="1.0" standalone="no"?>
<!DOCTYPE svg PUBLIC "-//W3C//DTD SVG 1.1//EN" "http://www.w3.org/Graphics/SVG/1.1/DTD/svg11.dtd" >
<svg xmlns="http://www.w3.org/2000/svg">
<metadata>Generated by IcoMoon</metadata>
<defs>
<font id="icons" horiz-adv-x="1024">
<font-face units-per-em="1024" ascent="960" descent="-64" />
<missing-glyph horiz-adv-x="1024" />
<glyph unicode="&#x20;" horiz-adv-x="512" d="" />
<glyph unicode="&#xe900;" glyph-name="bag" d="M908.557 692.794h-108.151v108.152c0 19.122-7.597 37.462-21.118 50.983-13.523 13.521-31.861 21.118-50.985 21.118h-432.606c-19.123 0-37.463-7.596-50.985-21.118s-21.118-31.861-21.118-50.983v-108.152h-108.152c-28.684 0-56.193-11.394-76.475-31.678-20.282-20.282-31.677-47.791-31.677-76.474v-504.708c0-19.123 7.596-37.463 21.118-50.985s31.861-21.118 50.983-21.118h865.216c19.121 0 37.461 7.597 50.982 21.118s21.118 31.861 21.118 50.985v504.708c0 28.683-11.394 56.192-31.676 76.474-20.284 20.284-47.793 31.678-76.476 31.678zM295.697 800.946h432.606v-108.152h-432.606v108.152zM944.608 79.934h-865.216v324.454h288.405v-180.252h288.405v180.252h288.405v-324.454zM439.898 404.388h144.203v-108.151h-144.203v108.151zM79.392 476.491v108.151c0 9.562 3.798 18.731 10.559 25.491s15.93 10.56 25.492 10.56h793.114c9.562 0 18.731-3.799 25.491-10.56s10.56-15.93 10.56-25.491v-108.151h-865.216z" />
<glyph unicode="&#xe901;" glyph-name="book" d="M621.694 669.353h255.955v-73.502h-255.955v73.502zM621.694 485.6h255.955v-73.502h-255.955v73.502zM621.694 301.854h255.955v-73.5h-255.955v73.5zM950.782 853.096h-877.559c-19.389-0.019-37.979-7.769-51.689-21.549s-21.421-32.463-21.441-51.951v-661.501c0.019-19.488 7.73-38.172 21.441-51.951s32.3-21.53 51.689-21.549h877.559c19.386 0.030 37.969 7.782 51.678 21.559s21.423 32.457 21.451 51.94v661.501c-0.019 19.488-7.729 38.171-21.44 51.951s-32.301 21.53-51.689 21.549zM73.223 779.596h402.214v-661.501h-402.214v661.501zM548.567 118.095v661.501h402.214l0.073-661.501h-402.287z" />
<glyph unicode="&#xe902;" glyph-name="shop" d="M931.2 666.662h-838.399c-0.384 0-0.64-0.254-0.64-0.634v-115.311c0-75.612 62.72-136.934 139.903-136.934 52.096 0 97.536 27.817 121.728 69.163 3.712 6.447 10.752 10.494 18.304 10.494s14.464-4.047 18.304-10.494c24.064-41.346 69.504-69.163 121.6-69.163 52.224 0 97.792 27.942 121.728 69.414 3.712 6.323 10.496 10.242 17.792 10.242h0.768c7.424 0 14.080-3.919 17.792-10.242 24.064-41.472 69.632-69.414 121.856-69.414 77.184 0 139.904 61.323 139.904 136.934v115.311c0 0.38-0.256 0.634-0.64 0.634zM985.6 757.571v161.968c0 22.38-18.304 40.461-40.96 40.461h-865.279c-22.656 0-40.96-18.081-40.96-40.461v-161.968c-21.376-1.264-38.4-18.841-38.4-40.334v-166.519c-0.082-30.605 6.191-60.9 18.432-89.013 5.504-12.898 12.288-25.035 19.968-36.542v-436.213c0-22.255 18.304-40.461 40.96-40.461h865.279c22.656 0 40.96 18.080 40.96 40.461v436.213c7.802 11.535 14.485 23.77 19.968 36.542 12.16 28.194 18.432 58.161 18.432 89.013v166.519c0 21.493-17.024 39.069-38.4 40.334zM130.561 868.964h762.879v-111.266h-762.879v111.266zM593.92 39.398h-163.84v131.622h163.84v-131.622zM893.952 39.398h-218.112v172.083c0 22.379-18.304 40.461-40.96 40.461h-245.76c-22.656 0-40.96-18.082-40.96-40.461v-172.083h-217.599v306.234c3.712-1.769 7.552-3.539 11.52-5.056 28.544-11.887 58.88-17.828 90.111-17.828s61.44 5.941 90.112 17.828c17.664 7.332 34.304 16.689 49.536 27.942 0.256 0.126 0.512 0.126 0.768 0 15.279-11.3 31.919-20.687 49.536-27.942 28.544-11.887 58.88-17.828 90.112-17.828s61.44 5.941 90.112 17.828c17.664 7.332 34.304 16.689 49.536 27.942 0.256 0.126 0.512 0.126 0.768 0 15.279-11.3 31.919-20.687 49.536-27.942 28.544-11.887 58.88-17.828 90.112-17.828s61.44 5.941 90.112 17.828c3.84 1.643 7.68 3.287 11.52 5.056v-306.234zM931.84 550.718c0-75.612-62.72-136.934-139.904-136.934-52.224 0-97.792 27.942-121.856 69.414-3.712 6.323-10.368 10.242-17.792 10.242h-0.768c-7.296 0-14.080-3.919-17.792-10.242-12.279-21.154-30.012-38.722-51.392-50.914s-45.649-18.575-70.336-18.5c-52.096 0-97.536 27.817-121.6 69.163-3.84 6.447-10.752 10.494-18.304 10.494s-14.592-4.047-18.304-10.494c-12.352-21.075-30.106-38.562-51.475-50.705-21.37-12.141-45.6-18.507-70.253-18.458-77.183 0-139.903 61.323-139.903 136.934v115.311c0 0.38 0.256 0.634 0.64 0.634h838.399c0.384 0 0.64-0.254 0.64-0.634v-115.311z" />
<glyph unicode="&#xe903;" glyph-name="airplane" horiz-adv-x="1038" d="M1000.511 929.252c-5.535 5.731-12.53 9.699-20.161 11.437-7.63 1.738-15.579 1.175-22.912-1.624l-902.518-341.316c-7.784-3.071-14.485-8.53-19.213-15.656s-7.261-15.578-7.261-24.235c0-8.658 2.533-17.111 7.261-24.236s11.43-12.585 19.213-15.656l393.826-163.831 157.53-409.579c2.96-7.74 8.033-14.409 14.595-19.184 6.561-4.777 14.322-7.451 22.327-7.694 8.29 0.176 16.334 2.962 23.071 7.989s11.853 12.059 14.67 20.17l328.188 938.618c2.795 7.548 3.469 15.768 1.944 23.699-1.526 7.932-5.188 15.249-10.56 21.099zM643.197 79.802l-114.456 298.651 196.503 204.363-57.843 60.156-198.144-206.069-285.524 120.741 719.142 270.065-259.678-747.908z" />
<glyph unicode="&#xe904;" glyph-name="alien" horiz-adv-x="1080" d="M952.825 564.969c-33.594 0-63.158-13.946-84.883-35.766-79.956 55.56-187.685 91.325-307.060 95.149l62.039 280.722 197.539-44.538c0-48.587 39.418-88.176 87.795-88.176 49.273 0 88.915 40.715 88.915 89.301s-39.418 89.3-88.915 89.3c-34.491 0-64.278-20.919-79.060-49.486l-218.144 48.587c-10.974 2.924-21.724-4.949-24.636-15.971l-68.086-309.515c-118.478-4.949-225.086-40.713-305.266-96.273-21.726 22.719-52.409 36.665-86.004 36.665-124.526 0-165.287-167.804-51.288-225.164-4.031-17.77-5.823-36.665-5.823-55.56 0-188.499 211.425-341.232 471.002-341.232 260.698 0 472.123 152.733 472.123 341.232 0 18.895-2.016 38.689-6.944 56.459 111.76 57.585 70.549 224.264-53.304 224.264zM256.512 327.883c0 49.487 39.418 89.301 88.915 89.301 48.376 0 87.795-39.59 87.795-89.301 0-48.587-39.418-88.176-87.795-88.176-49.273-0.224-88.915 39.59-88.915 88.176zM736.473 117.566c-81.524-81.878-311.537-81.878-393.062 0-8.959 7.872-8.959 21.82 0 30.817 7.839 7.872 21.724 7.872 29.564 0 62.262-64.108 268.759-65.233 333.71 0 7.839 7.872 21.724 7.872 29.563 0 9.184-8.997 9.184-22.945 0.224-30.817zM734.682 239.483c-48.378 0-87.796 39.59-87.796 88.176 0 49.486 39.418 89.3 87.796 89.3 49.273 0 88.914-39.588 88.914-89.3-0.223-48.362-39.641-88.176-88.914-88.176z" />
<glyph unicode="&#xe905;" glyph-name="aws" horiz-adv-x="1707" d="M485.784 586.344c-1.895-59.134 27.911-85.32 28.648-101.95-0.351-3.386-1.513-6.638-3.392-9.486-1.877-2.848-4.416-5.208-7.402-6.884l-33.704-23.393c-4.361-3.031-9.502-4.771-14.824-5.013-1.131 0.052-21.564-4.777-53.924 66.861-19.744-24.435-44.863-44.068-73.437-57.394s-59.845-19.994-91.419-19.492c-42.865-2.323-159.035 24.124-153.058 146.751-4.187 99.939 89.682 162.023 186.762 156.774 18.694-0.052 56.873-0.965 123.727-16.369v40.78c7.082 69.081-38.707 122.679-117.988 114.638-6.32-0.026-51.081 1.305-120.698-26.394-19.379-8.824-21.854-7.362-28.305-7.362-19.511 0-11.48 56.079-7.741 63.18 13.718 16.709 94.421 47.907 173.623 47.463 52.957 4.644 105.63-11.562 146.634-45.114 16.668-18.486 29.384-40.13 37.381-63.625s11.108-48.353 9.146-73.074l-0.028-180.897zM258.237 501.781c85.39 1.227 121.542 52.136 129.783 79.55 6.477 26.237 5.398 42.842 5.398 71.534-25.462 6.056-62.113 12.662-104.164 12.714-39.89 2.976-112.747-14.698-109.903-84.222-3.265-43.835 29.28-81.977 78.885-79.576zM708.276 441.604c-20.696-1.881-30.333 12.688-33.387 27.073l-131.126 429.859c-2.553 7.258-4.239 14.751-5.055 22.4-0.483 3.154 0.315 6.369 2.22 8.939 1.907 2.57 4.764 4.285 7.943 4.767 0.632 0.105-5.608 0 58.586 0 23.118 2.297 30.648-15.743 33.044-27.073l94.052-367.671 87.311 367.671c1.396 8.407 7.742 28.901 33.703 26.734h45.184c5.713 0.47 29.252 1.305 33.386-27.073l87.997-372.37 97.080 372.37c1.263 5.691 7.161 29.684 33.387 27.073h51.923c2.238 0.339 16.192 2.115 13.822-22.4-1.131-4.83 8.979 27.83-138.892-443.564-3.028-14.386-12.691-28.953-33.387-27.074h-49.212c-28.805-3.002-32.939 25.22-33.387 28.066l-87.311 358.011-86.31-357.645c-0.421-2.846-4.556-31.068-33.387-28.066l-48.185-0.026zM1428.361 426.906c-15.484-0.026-89.314 0.783-151.032 32.085-6.147 2.581-11.384 6.914-15.046 12.451-3.66 5.536-5.582 12.025-5.518 18.643v28.066c0 22.062 16.325 18.014 23.25 15.378 26.435-10.599 43.393-18.642 75.859-25.064 96.5-19.659 138.945 6.004 149.346 11.696 34.624 20.391 37.363 67.044 13.822 91.245-27.594 22.949-40.758 23.81-139.893 54.826-12.216 3.368-115.063 35.533-115.301 136.698-1.606 73.727 65.957 146.672 183.049 146.071 33.361 0.026 122.253-10.782 146.318-40.78 3.555-5.456 5.318-11.879 5.055-18.38v-26.394c0-11.592-4.265-17.388-12.823-17.388-20.301 2.245-56.32 29.162-129.44 28.065-18.141 0.94-105.032-2.376-101.135-65.19-1.131-49.499 70.066-68.061 78.201-70.202 96.001-28.641 128.098-33.392 166.198-77.226 45.126-58.090 20.8-126.1 11.454-144.74-50.239-97.877-180.154-89.914-182.365-89.862zM1534.209 153.143c-184.392-135.028-452.067-206.902-680.615-206.902-308.38-2.015-606.367 110.416-835.384 315.195-17.194 15.376-2.027 36.446 18.879 24.724 254.048-144.091 541.683-219.801 834.359-219.615 218.561 1.162 434.738 45.124 636.115 129.362 31.017 13.054 57.321-20.365 26.647-42.764zM1611.067 240.055c-23.593 30.076-156.087 14.045-215.409 7.023-17.878-2.011-20.906 13.366-4.714 24.724 105.506 73.544 278.793 52.476 298.688 27.752 19.879-24.724-5.396-196.876-104.159-279.115-15.167-12.714-29.673-6.004-22.933 10.703 22.222 55.478 72.12 178.81 48.526 208.912z" />
<glyph unicode="&#xe906;" glyph-name="bag1" d="M908.557 692.794h-108.151v108.152c0 19.122-7.597 37.462-21.118 50.983-13.523 13.521-31.861 21.118-50.985 21.118h-432.606c-19.123 0-37.463-7.596-50.985-21.118s-21.118-31.861-21.118-50.983v-108.152h-108.152c-28.684 0-56.193-11.394-76.475-31.678-20.282-20.282-31.677-47.791-31.677-76.474v-504.708c0-19.123 7.596-37.463 21.118-50.985s31.861-21.118 50.983-21.118h865.216c19.121 0 37.461 7.597 50.982 21.118s21.118 31.861 21.118 50.985v504.708c0 28.683-11.394 56.192-31.676 76.474-20.284 20.284-47.793 31.678-76.476 31.678zM295.697 800.946h432.606v-108.152h-432.606v108.152zM944.608 79.934h-865.216v324.454h288.405v-180.252h288.405v180.252h288.405v-324.454zM439.898 404.388h144.203v-108.151h-144.203v108.151zM79.392 476.491v108.151c0 9.562 3.798 18.731 10.559 25.491s15.93 10.56 25.492 10.56h793.114c9.562 0 18.731-3.799 25.491-10.56s10.56-15.93 10.56-25.491v-108.151h-865.216z" />
<glyph unicode="&#xe907;" glyph-name="book1" d="M621.694 669.353h255.955v-73.502h-255.955v73.502zM621.694 485.6h255.955v-73.502h-255.955v73.502zM621.694 301.854h255.955v-73.5h-255.955v73.5zM950.782 853.096h-877.559c-19.389-0.019-37.979-7.769-51.689-21.549s-21.421-32.463-21.441-51.951v-661.501c0.019-19.488 7.73-38.172 21.441-51.951s32.3-21.53 51.689-21.549h877.559c19.386 0.030 37.969 7.782 51.678 21.559s21.423 32.457 21.451 51.94v661.501c-0.019 19.488-7.729 38.171-21.44 51.951s-32.301 21.53-51.689 21.549zM73.223 779.596h402.214v-661.501h-402.214v661.501zM548.567 118.095v661.501h402.214l0.073-661.501h-402.287z" />
<glyph unicode="&#xe908;" glyph-name="dnk" horiz-adv-x="1045" d="M941.871 484.646c-12.277-0.090-24.437-2.432-35.9-6.916l-122.46 102.074c3.014 11.127 5.158 22.673 5.158 34.839 0 72.070-56.89 129.997-127.669 129.997s-127.667-57.926-127.667-129.997c0-20.591 5.107-39.778 13.38-57.043l-148.557-178.771c-5.946 1.133-11.977 1.743-18.027 1.82-9.139 0-17.771-1.559-26.146-3.846l-130.884 133.271c2.298 8.476 3.829 17.265 3.829 26.573 0 57.613-45.552 103.996-102.135 103.996s-102.135-46.383-102.135-103.996c0-57.615 45.552-103.998 102.135-103.998 9.141 0 17.772 1.559 26.147 3.846l130.885-133.271c-2.455-8.64-3.744-17.579-3.829-26.573 0-57.615 45.551-103.998 102.133-103.998 56.585 0 102.135 46.383 102.135 103.998 0 12.324-2.451 23.921-6.281 34.893l148.759 178.978c11.59-3.43 23.593-5.875 36.256-5.875 20.154 0.113 39.989 5.122 57.86 14.611l122.511-102.074c-0.962-5.461-1.508-10.989-1.634-16.535 0-57.615 45.551-103.998 102.133-103.998 56.585 0 102.135 46.383 102.135 103.998s-45.551 103.998-102.135 103.998z" />
<glyph unicode="&#xe909;" glyph-name="facebook" d="M983.040 960h-942.080c-22.656 0-40.96-18.304-40.96-40.96v-942.080c0-22.656 18.304-40.96 40.96-40.96h942.080c22.656 0 40.96 18.304 40.96 40.96v942.080c0 22.656-18.304 40.96-40.96 40.96zM864.768 661.12h-81.792c-64.128 0-76.544-30.464-76.544-75.264v-98.688h153.088l-19.968-154.496h-133.12v-396.672h-159.616v396.544h-133.504v154.624h133.504v113.92c0 132.224 80.768 204.288 198.784 204.288 56.576 0 105.088-4.224 119.296-6.144v-138.112h-0.128z" />
<glyph unicode="&#xe90a;" glyph-name="folk" d="M583.574 679.312c-14.842-10.29-31.584-17.521-49.251-21.271-17.664-3.75-35.901-3.944-53.645-0.571-17.741 3.373-34.634 10.247-49.69 20.219s-27.978 22.843-38.006 37.862c-10.029 15.019-16.966 31.885-20.406 49.614-3.443 17.729-3.318 35.966 0.365 53.646s10.851 34.45 21.085 49.331c10.234 14.88 23.328 27.573 38.518 37.339 29.997 19.811 66.611 26.942 101.85 19.835 35.235-7.108 66.224-27.876 86.192-57.766s27.293-66.468 20.368-101.741c-6.922-35.273-27.526-66.371-57.312-86.495h-0.067zM545.834 848.904c-7.405 5.327-15.808 9.11-24.704 11.124-8.899 2.013-18.112 2.215-27.088 0.594s-17.536-5.031-25.168-10.028c-7.632-4.997-14.182-11.479-19.258-19.060s-8.573-16.105-10.285-25.065c-1.712-8.961-1.603-18.174 0.317-27.092 1.923-8.918 5.619-17.358 10.874-24.817 5.251-7.46 11.949-13.786 19.696-18.603 14.966-9.092 32.867-12.059 49.968-8.283s32.086 14.005 41.83 28.555c9.747 14.55 13.504 32.3 10.49 49.551s-12.57 32.675-26.672 43.057v0.068zM723.315 846.864c19.61 13.192 43.21 19.132 66.73 16.799s45.491-12.795 62.128-29.583c11.856-11.951 20.598-26.628 25.459-42.745 4.864-16.116 5.696-33.18 2.426-49.693-3.267-16.513-10.541-31.972-21.174-45.021-10.637-13.049-24.31-23.288-39.824-29.821-18.634-7.791-39.171-9.843-58.976-5.894-19.808 3.949-37.984 13.72-52.205 28.062-10.688 10.743-18.87 23.716-23.958 37.989s-6.96 29.496-5.478 44.578c1.482 15.081 6.278 29.649 14.048 42.66s18.317 24.144 30.893 32.601l-0.067 0.068zM755.955 737.384c6.384-6.357 15.030-9.918 24.042-9.899 4.461 0.010 8.877 0.898 12.992 2.613 4.118 1.716 7.859 4.226 11.008 7.388 3.146 3.161 5.642 6.911 7.341 11.036 1.696 4.125 2.566 8.544 2.557 13.005s-0.896 8.877-2.614 12.995c-1.715 4.118-4.224 7.858-7.386 11.005-6.333 6.367-14.89 10.025-23.869 10.2-4.483 0.009-8.928-0.871-13.069-2.589-4.144-1.718-7.904-4.241-11.066-7.421s-5.661-6.956-7.354-11.109c-1.696-4.153-2.547-8.6-2.512-13.084 0.022-9.056 3.584-17.744 9.93-24.208v0.068zM180.946 147.28h123.080v-68.339h-123.080c-21.546 0.192-42.136 8.925-57.256 24.275-15.178 15.408-23.679 36.173-23.664 57.798v123.082c-9.155 0.307-18.154 2.464-26.452 6.346-8.298 3.878-15.724 9.402-21.828 16.23-6.487 6.57-11.578 14.384-14.967 22.976-3.389 8.589-5.006 17.773-4.753 27.005v148.374c0.204 32.096 12.92 62.765 35.36 85.546 22.372 22.506 52.632 35.36 84.32 35.562h125.12c-16.877-20.099-29.59-43.35-37.4-68.406h-87.72c-13.801-0.397-26.933-6.038-36.72-15.776-9.614-9.885-14.982-23.136-14.96-36.925v-151.776h68v-192.166c-0.158-1.853 0.062-3.718 0.647-5.485 0.585-1.763 1.521-3.392 2.753-4.784 2.733-2.112 6.067-3.302 9.52-3.402v-0.134zM677.344 590.502c-11.126 11.235-24.362 20.163-38.95 26.266-14.586 6.102-30.237 9.264-46.048 9.299h-168.64c-31.699-0.253-62.013-13.037-84.32-35.565-22.44-22.778-35.156-53.446-35.36-85.542v-216.106c-0.096-18.554 6.967-36.432 19.722-49.91 6.112-6.822 13.539-12.336 21.834-16.214 8.298-3.882 17.293-6.045 26.445-6.362v-157.965c-0.064-10.781 2.006-21.469 6.090-31.446 4.086-9.981 10.106-19.050 17.712-26.694 12.24-11.424 27.674-18.835 44.198-21.216h136c19.126 2.512 36.65 12.003 49.203 26.653 12.55 14.646 19.245 33.418 18.797 52.704v158.032c9.155 0.307 18.154 2.464 26.451 6.346 8.298 3.878 15.725 9.402 21.83 16.23 6.48 6.56 11.568 14.365 14.957 22.941 3.389 8.579 5.008 17.754 4.762 26.973v216.102c0.048 31.949-12.4 62.65-34.682 85.546v-0.070zM644.026 285.523h-68v-227.12c-0.067-3.584-1.53-7.002-4.080-9.52-1.162-1.373-2.624-2.458-4.278-3.165-1.651-0.71-3.446-1.021-5.242-0.915h-109.478c-3.555 0.166-6.918 1.651-9.434 4.166s-4.003 5.882-4.166 9.434v227.12h-67.322v219.504c0 13.805 5.373 27.066 14.96 36.925 9.789 9.738 22.918 15.379 36.72 15.776h168.64c10.301-0.182 20.326-3.366 28.842-9.165s15.155-13.958 19.098-23.475c2.589-6.365 3.862-13.19 3.741-20.061v-219.504zM835.107 79.008h-123.082v68.339h122.4c3.453 0.096 6.787 1.286 9.52 3.402 1.37 1.338 2.442 2.95 3.142 4.73 0.704 1.782 1.024 3.693 0.938 5.606v192.166h68v151.776c0.022 13.789-5.347 27.040-14.96 36.925-9.789 9.738-22.918 15.379-36.72 15.776h-87.718c-7.808 25.056-20.522 48.31-37.402 68.406h125.12c31.693-0.288 61.994-13.069 84.32-35.562 22.438-22.781 35.155-53.45 35.36-85.546v-148.374c0-18.566-7.005-36.381-19.651-49.846-12.65-13.53-29.92-21.622-48.349-22.643v-123.078c0-21.693-8.499-42.432-23.664-57.802-15.12-15.35-35.709-24.080-57.254-24.275zM236.026 864.136c-20.235 0.023-40.016-5.996-56.807-17.288s-29.829-27.34-37.441-46.088c-7.682-18.742-9.676-39.331-5.734-59.199s13.646-38.136 27.902-52.525c14.251-14.372 32.462-24.171 52.308-28.143s40.426-1.939 59.111 5.842c18.684 7.78 34.626 20.954 45.788 37.838s17.037 36.712 16.874 56.951c0 27.2-10.742 53.312-29.92 72.556-9.442 9.511-20.671 17.062-33.041 22.22s-25.637 7.821-39.039 7.836zM236.026 727.32c-4.485-0.009-8.927 0.871-13.069 2.589s-7.903 4.24-11.065 7.421c-3.162 3.18-5.661 6.956-7.355 11.109s-2.547 8.6-2.511 13.084c0.018 9.031 3.599 17.69 9.966 24.094s15.004 10.038 24.034 10.11c9.003-0.159 17.59-3.82 23.938-10.206s9.957-14.995 10.062-23.998c-0.018-9.031-3.599-17.69-9.965-24.094s-15.004-10.038-24.035-10.109z" />
<glyph unicode="&#xe90b;" glyph-name="hooli" horiz-adv-x="3013" d="M680.387 11.34l180.338-3.736c-62.154 21.484-122.424 47.636-180.338 78.459v-74.723zM952.071 36.092v-24.752l-91.347-3.736c171.862-58.377 329.128-66.317 445.902-33.625-93.702-0.933-215.651 12.142-354.556 62.113zM2877.405 574.095c74.875 0 136.081 60.243 136.081 134.966s-60.738 114.419-136.081 114.419c-74.866 0-136.078-40.163-136.078-114.419s60.741-134.966 136.078-134.966zM2740.856 11.34h272.63v516.052h-272.63v-516.052zM2393.837 11.34h272.624v912.081l-272.624-127.495v-784.586zM2247.87 568.958c-85.697 84.995-237.313 79.857-237.313 79.857s-152.084 5.138-237.311-79.857c-85.697-84.998-79.105-158.319-79.105-245.652s-6.592-160.186 79.105-245.184c85.697-84.995 237.311-79.857 237.311-79.857s152.087-5.138 237.313 79.857c85.697 84.998 79.103 157.851 79.103 245.184-0.468 87.801 6.124 161.122-79.103 245.652zM2060.469 233.174c0-16.814-8.476-58.377-50.381-58.377-41.908 0-50.384 41.563-50.384 58.377v188.673c0 40.629 34.374 50.905 50.384 50.905 16.007 0 50.381-9.807 50.381-50.905v-188.673zM1560.418 568.958c-85.694 84.995-237.311 79.857-237.311 79.857s-151.616 5.138-237.313-79.857c-8.947-8.874-17.42-18.215-24.953-28.022-179.87 138.237-341.372 217.163-480.748 285.347v96.672l-105.943-49.504c-256.145 103.21-419.061 84.997-458.143-0.467 0 0-117.243-153.181 290.991-517.454v-344.19h272.624v133.568c-30.603 19.614-61.209 40.629-91.344 63.514-69.688 52.306-129.015 100.873-180.809 146.643v144.773c61.68-68.652 143.612-146.643 251.436-234.909l21.188-16.811v139.17c0 32.224 8.005 84.995 50.855 84.995 42.847 0 49.91-32.224 49.91-70.050v-227.436c84.755-56.978 175.631-103.21 271.685-138.237v438.527c0 87.333-63.096 174.665-191.169 174.665-74.395 0.465-143.612-38.298-181.28-102.277v253.589c197.29-97.606 395.050-217.161 470.388-272.27-48.029-68.184-43.789-131.23-43.789-204.086 0-87.333-6.592-160.186 79.103-245.184 85.697-84.995 237.313-79.86 237.313-79.86s152.087-5.135 237.311 79.86c85.697 84.998 78.634 157.851 78.634 245.184 0 86.399 7.063 159.721-78.634 244.25zM306.998 795.926v-295.62c-229.308 254.523-183.164 354.931-165.743 369.409 63.566 53.24 176.571 37.361 303.231-9.807l-137.488-63.981zM1373.488 233.174c0-16.814-8.476-58.377-50.381-58.377-41.908 0-50.384 41.563-50.384 58.377v188.673c0 40.629 34.374 50.905 50.384 50.905s50.381-9.807 50.381-50.905v-188.673z" />
<glyph unicode="&#xe90c;" glyph-name="instagram" d="M512.077 710.509c-145.281 0-262.529-117.248-262.529-262.526 0-145.28 117.248-262.528 262.529-262.528s262.528 117.248 262.528 262.528c0 145.278-117.248 262.526-262.528 262.526zM512.077 277.359c-93.953 0-170.625 76.672-170.625 170.624 0 93.95 76.672 170.622 170.625 170.622s170.624-76.672 170.624-170.622c0-93.952-76.672-170.624-170.624-170.624zM785.357 782.445c-33.92 0-61.312-27.392-61.312-61.312s27.392-61.312 61.312-61.312c33.92 0 61.312 27.264 61.312 61.312 0.009 8.055-1.57 16.032-4.646 23.475-3.081 7.443-7.595 14.206-13.291 19.901s-12.459 10.211-19.9 13.289c-7.445 3.078-15.424 4.657-23.475 4.646zM1023.821 447.983c0 70.656 0.64 140.67-3.328 211.198-3.968 81.92-22.656 154.624-82.56 214.528-60.032 60.032-132.608 78.592-214.528 82.56-70.656 3.968-140.672 3.328-211.2 3.328-70.656 0-140.673 0.64-211.201-3.328-81.92-3.968-154.624-22.656-214.528-82.56-60.032-60.032-78.592-132.608-82.56-214.528-3.968-70.656-3.328-140.67-3.328-211.198s-0.64-140.672 3.328-211.2c3.968-81.92 22.656-154.624 82.56-214.528 60.032-60.032 132.608-78.592 214.528-82.56 70.656-3.968 140.673-3.328 211.201-3.328 70.656 0 140.672-0.64 211.2 3.328 81.92 3.968 154.624 22.656 214.528 82.56 60.032 60.032 78.592 132.608 82.56 214.528 4.096 70.528 3.328 140.544 3.328 211.2zM911.181 146.159c-9.344-23.296-20.608-40.704-38.656-58.624-18.048-18.048-35.328-29.312-58.624-38.656-67.328-26.752-227.2-20.736-301.824-20.736s-234.625-6.016-301.953 20.608c-23.296 9.344-40.704 20.608-58.624 38.656-18.048 18.048-29.312 35.328-38.656 58.624-26.624 67.456-20.608 227.328-20.608 301.952s-6.016 234.622 20.608 301.95c9.344 23.296 20.608 40.704 38.656 58.624s35.328 29.312 58.624 38.656c67.328 26.624 227.329 20.608 301.953 20.608s234.624 6.016 301.952-20.608c23.296-9.344 40.704-20.608 58.624-38.656 18.048-18.048 29.312-35.328 38.656-58.624 26.624-67.328 20.608-227.326 20.608-301.95s6.016-234.496-20.736-301.824z" />
<glyph unicode="&#xe90d;" glyph-name="location" horiz-adv-x="1038" d="M419.556 362.667c113.731 0 206.222 89.301 206.222 199.111s-92.491 199.111-206.222 199.111c-113.732 0-206.222-89.301-206.222-199.111s92.49-199.111 206.222-199.111zM419.556 661.333c56.866 0 103.111-44.651 103.111-99.556s-46.245-99.556-103.111-99.556c-56.866 0-103.111 44.651-103.111 99.556s46.245 99.556 103.111 99.556zM390.17-40.395c8.575-6.101 18.849-9.382 29.386-9.382s20.811 3.281 29.386 9.382c15.403 10.856 377.412 271.33 375.943 596.481 0 222.707-181.841 403.914-405.329 403.914s-405.329-181.207-405.329-403.662c-1.469-325.403 360.54-585.877 375.943-596.733zM419.556 859.021c167.654 0 303.997-135.867 303.997-303.188 1.064-224.071-222.323-425.271-303.997-491.261-81.623 66.041-305.061 267.291-303.997 491.514 0 167.068 136.342 302.935 303.997 302.935z" />
<glyph unicode="&#xe90e;" glyph-name="lyft" horiz-adv-x="1458" d="M8.678 942.726h218.895v-590.355c0-93.632 42.203-149.358 76.529-172.553-35.732-31.399-144.055-59.121-225.648 7.92-47.831 39.603-69.776 105.512-69.776 166.896v588.092zM1375.786 451.942v62.231h66.964v217.246h-73.435c-28.417 130.971-144.054 228.279-282.201 228.279-159.248 0-288.952-130.122-288.952-290.511v-506.908c45.016-6.507 99.6 0.849 145.46 39.601 48.112 39.603 69.778 105.229 69.778 166.896v18.953h109.165v217.246h-109.165v65.909c0 97.874 146.868 97.874 146.868 0v-218.095c0-160.107 129.423-290.511 288.952-290.511v216.397c-40.797 0-73.435 33.096-73.435 73.265zM547.757 731.985v-319.646c0-43.562-66.963-43.562-66.963 0v319.646h-216.081v-375.372c0-67.324 22.507-152.751 126.61-180.755 104.101-27.721 163.748 29.984 163.748 29.984-5.908-37.905-40.795-65.909-98.193-71.567-43.61-4.525-99.036 10.184-126.61 22.065v-198.859c70.62-21.216 144.898-27.723 218.332-13.295 132.518 25.741 216.081 136.911 216.081 285.135v504.079h-216.925v-1.415z" />
<glyph unicode="&#xe90f;" glyph-name="medal" horiz-adv-x="1045" d="M342.701 234.775c-17.301 17.38-8.282 12.48-50.016 23.701-18.935 5.099-35.582 14.899-50.635 26.639l-90.336-222.479c-8.741-21.54 7.586-44.941 30.723-44.060l104.912 4.019 72.158-76.561c15.927-16.879 43.883-11.618 52.625 9.92l103.637 255.241c-21.585-12.079-45.538-19.159-70.306-19.159-38.827 0-75.305 15.181-102.763 42.739zM911.522 62.637l-90.336 222.479c-15.053-11.759-31.699-21.54-50.635-26.639-41.952-11.281-32.753-6.362-50.016-23.701-27.458-27.558-63.955-42.739-102.782-42.739-24.77 0-48.723 7.1-70.306 19.159l103.637-255.241c8.74-21.538 36.717-26.799 52.625-9.92l72.177 76.561 104.913-4.019c23.136-0.881 39.462 22.539 30.722 44.060zM672.988 280.036c30.423 31.1 33.907 28.42 77.235 40.279 27.657 7.58 49.28 29.681 56.687 57.961 14.893 56.8 11.029 49.939 51.669 91.501 20.25 20.7 28.154 50.88 20.747 79.159-14.874 56.759-14.893 48.841 0 105.66 7.407 28.279-0.497 58.46-20.747 79.159-40.64 41.56-36.777 34.72-51.669 91.5-7.407 28.28-29.030 50.38-56.687 57.96-55.514 15.22-48.823 11.24-89.502 52.82-20.25 20.7-49.777 28.8-77.434 21.22-55.492-15.2-47.746-15.22-103.339 0-27.657 7.58-57.184-0.5-77.434-21.22-40.64-41.56-33.95-37.6-89.481-52.82-27.657-7.58-49.28-29.68-56.687-57.96-14.874-56.78-11.031-49.94-51.67-91.5-20.25-20.7-28.174-50.88-20.747-79.159 14.874-56.721 14.893-48.8 0-105.641-7.407-28.279 0.498-58.46 20.747-79.179 40.639-41.562 36.775-34.701 51.67-91.501 7.407-28.279 29.030-50.381 56.687-57.961 44.561-12.201 47.885-10.281 77.214-40.279 26.342-26.94 67.379-31.761 99.038-11.639 12.661 8.073 27.347 12.358 42.342 12.358s29.681-4.286 42.34-12.358c31.639-20.122 72.676-15.3 99.019 11.639zM343.776 608.115c0 106.061 84.105 192.041 187.842 192.041s187.842-85.98 187.842-192.041c0-106.059-84.105-192.038-187.842-192.038s-187.842 85.98-187.842 192.038z" />
<glyph unicode="&#xe910;" glyph-name="people" horiz-adv-x="1045" d="M529.933 473.553c91.823 0 163.241 74.566 163.241 166.082s-74.818 162.693-166.641 162.693c-91.823 0-163.241-74.567-163.241-162.693 0-91.516 74.818-166.082 166.641-166.082zM526.532 734.539c3.401 0 3.401 0 0 0 54.413 0 98.624-44.062 98.624-98.293s-44.211-94.903-98.624-94.903c-54.415 0-95.223 44.062-95.223 94.903 0 54.231 44.209 98.293 95.223 98.293zM1033.257 493.894c-64.617 57.621-149.636 88.126-238.059 84.736h-27.206c-6.801-27.115-17.005-50.842-30.609-71.179 20.405 3.39 37.41 3.39 57.815 3.39 64.617 3.39 129.233-16.947 180.245-54.231v-244.038h68.017v271.155l-10.204 10.167zM716.979 795.56c17.005 40.673 64.617 61.010 108.828 44.063 40.809-16.947 61.214-64.399 44.209-108.463-13.602-30.505-44.209-50.842-74.818-50.842-6.801 0-17.003 0-23.806 3.39 3.401-16.947 3.401-33.894 3.401-47.452v-20.337c6.803 0 13.604-3.388 20.405-3.388 85.022 0 153.039 67.787 153.039 149.134 0 84.736-68.017 152.525-149.638 152.525-54.413 0-102.025-27.116-129.231-74.568 17.005-10.168 34.007-23.726 47.612-44.063zM329.282 504.062c-13.602 20.335-23.806 44.062-30.607 71.177h-27.206c-88.422 3.39-173.443-27.115-238.059-81.346l-10.202-10.167v-271.155h68.017v244.038c54.413 37.284 115.629 57.621 180.245 54.231 20.405 0 40.811-3.39 57.813-6.778zM271.469 615.906c6.803 0 13.604 0 20.405 3.39v20.337c0 16.947 0 33.894 3.401 47.452-6.801-3.39-17.003-3.39-23.806-3.39-44.211 0-81.62 37.284-81.62 81.347s37.409 81.347 81.62 81.347c34.010 0 64.617-20.337 78.221-50.842 13.602 16.947 34.007 33.894 51.012 47.452-44.211 71.178-136.034 94.904-207.452 50.842s-95.224-135.578-51.013-206.755c27.207-44.064 74.819-71.179 129.232-71.179zM808.802 290.526l-6.801 10.167c-68.017 74.569-163.241 118.63-265.267 115.241-102.025 3.39-200.649-40.672-268.666-115.241l-6.801-10.167v-257.598c0-30.505 23.806-57.619 57.813-57.619h435.309c30.607 0 57.813 27.115 57.813 57.619v257.598h-3.401zM740.785 43.098h-411.503v223.701c54.415 54.231 129.233 81.346 207.452 81.346 74.82 3.39 149.638-27.115 204.051-81.346v-223.701z" />
<glyph unicode="&#xe911;" glyph-name="phone" horiz-adv-x="1038" d="M809.664 405.409c-4.999 5.008-10.937 8.981-17.473 11.692s-13.542 4.106-20.619 4.106c-7.076 0-14.083-1.395-20.619-4.106s-12.474-6.684-17.473-11.692l-85.884-85.884c-39.817 11.854-114.116 38.794-161.206 85.884s-74.031 121.391-85.884 161.207l85.884 85.884c5.008 4.999 8.98 10.937 11.691 17.473s4.106 13.542 4.106 20.619c0 7.076-1.395 14.083-4.106 20.619s-6.683 12.473-11.691 17.473l-215.518 215.517c-4.999 5.008-10.937 8.981-17.473 11.692s-13.544 4.106-20.619 4.106c-7.077 0-14.083-1.395-20.619-4.106s-12.474-6.684-17.473-11.692l-146.121-146.121c-20.474-20.474-32.004-48.599-31.573-77.316 1.239-76.725 21.552-343.212 231.574-553.233s476.508-230.281 553.287-231.575h1.509c28.447 0 55.334 11.207 75.701 31.573l146.121 146.122c5.008 4.999 8.981 10.937 11.692 17.473 2.709 6.535 4.105 13.542 4.105 20.619s-1.395 14.083-4.105 20.618c-2.711 6.537-6.684 12.474-11.692 17.473l-215.518 215.572zM802.822 43.77c-67.241 1.132-297.307 19.182-478.071 200-181.359 181.359-198.923 412.231-200.001 478.126l108.028 108.029 139.332-139.332-69.666-69.666c-6.333-6.329-10.99-14.135-13.548-22.714s-2.94-17.661-1.108-26.423c1.294-6.197 32.92-153.125 122.361-242.566 89.439-89.439 236.369-121.067 242.564-122.359 8.758-1.884 17.849-1.533 26.436 1.018s16.394 7.222 22.702 13.582l69.72 69.666 139.332-139.332-108.082-108.028z" />
<glyph unicode="&#xe912;" glyph-name="piperHat" horiz-adv-x="1393" d="M1392.64 958.009c-175.821-118.545-194.534-204.579-209.767-230.898-14.579-26.982-25.458-133.363-50.7-184.895-25.459-52.195-117.939-93.331-143.834-110.582-25.459-17.251-61.581-84.264-91.174-141.989-235.225 9.731-364.263-85.813-564.019-207.012 63.974 21.453 94.22 36.935 94.22 36.935 204.98 79.619 303.118 151.056 611.675 108.814 2.393 0 4.134-1.327 6.092-1.769 8.487-4.866 11.533-15.26 6.746-23.887l-117.286-211.877c-5.441-10.396-16.974-15.924-28.507-13.492-275.916 52.638-493.733-38.261-693.925-41.136-159.719-2.433-212.161 74.090-212.161 77.629 0 2.433 1.306 3.76 3.699 3.76 0 0 83.341 0 224.346 33.838 160.154 310.297 302.899 418.888 458.266 418.888 0 0 156.019 0 197.145-136.901 49.613 87.802 61.582 108.813 61.582 108.813 11.532 20.79 76.16 170.74 188.006 312.73 112.064 141.546 196.71 176.712 259.596 203.030z" />
<glyph unicode="&#xe913;" glyph-name="shop1" d="M931.2 666.662h-838.399c-0.384 0-0.64-0.254-0.64-0.634v-115.311c0-75.612 62.72-136.934 139.903-136.934 52.096 0 97.536 27.817 121.728 69.163 3.712 6.447 10.752 10.494 18.304 10.494s14.464-4.047 18.304-10.494c24.064-41.346 69.504-69.163 121.6-69.163 52.224 0 97.792 27.942 121.728 69.414 3.712 6.323 10.496 10.242 17.792 10.242h0.768c7.424 0 14.080-3.919 17.792-10.242 24.064-41.472 69.632-69.414 121.856-69.414 77.184 0 139.904 61.323 139.904 136.934v115.311c0 0.38-0.256 0.634-0.64 0.634zM985.6 757.571v161.968c0 22.38-18.304 40.461-40.96 40.461h-865.279c-22.656 0-40.96-18.081-40.96-40.461v-161.968c-21.376-1.264-38.4-18.841-38.4-40.334v-166.519c-0.082-30.605 6.191-60.9 18.432-89.013 5.504-12.898 12.288-25.035 19.968-36.542v-436.213c0-22.255 18.304-40.461 40.96-40.461h865.279c22.656 0 40.96 18.080 40.96 40.461v436.213c7.802 11.535 14.485 23.77 19.968 36.542 12.16 28.194 18.432 58.161 18.432 89.013v166.519c0 21.493-17.024 39.069-38.4 40.334zM130.561 868.964h762.879v-111.266h-762.879v111.266zM593.92 39.398h-163.84v131.622h163.84v-131.622zM893.952 39.398h-218.112v172.083c0 22.379-18.304 40.461-40.96 40.461h-245.76c-22.656 0-40.96-18.082-40.96-40.461v-172.083h-217.599v306.234c3.712-1.769 7.552-3.539 11.52-5.056 28.544-11.887 58.88-17.828 90.111-17.828s61.44 5.941 90.112 17.828c17.664 7.332 34.304 16.689 49.536 27.942 0.256 0.126 0.512 0.126 0.768 0 15.279-11.3 31.919-20.687 49.536-27.942 28.544-11.887 58.88-17.828 90.112-17.828s61.44 5.941 90.112 17.828c17.664 7.332 34.304 16.689 49.536 27.942 0.256 0.126 0.512 0.126 0.768 0 15.279-11.3 31.919-20.687 49.536-27.942 28.544-11.887 58.88-17.828 90.112-17.828s61.44 5.941 90.112 17.828c3.84 1.643 7.68 3.287 11.52 5.056v-306.234zM931.84 550.718c0-75.612-62.72-136.934-139.904-136.934-52.224 0-97.792 27.942-121.856 69.414-3.712 6.323-10.368 10.242-17.792 10.242h-0.768c-7.296 0-14.080-3.919-17.792-10.242-12.279-21.154-30.012-38.722-51.392-50.914s-45.649-18.575-70.336-18.5c-52.096 0-97.536 27.817-121.6 69.163-3.84 6.447-10.752 10.494-18.304 10.494s-14.592-4.047-18.304-10.494c-12.352-21.075-30.106-38.562-51.475-50.705-21.37-12.141-45.6-18.507-70.253-18.458-77.183 0-139.903 61.323-139.903 136.934v115.311c0 0.38 0.256 0.634 0.64 0.634h838.399c0.384 0 0.64-0.254 0.64-0.634v-115.311z" />
<glyph unicode="&#xe914;" glyph-name="speedometr" d="M954.093 628.333l-63.958-96.198c30.845-61.52 45.946-129.731 43.949-198.522s-21.030-136.013-55.389-195.638h-720.721c-44.659 77.475-63.164 167.277-52.773 256.096s49.128 171.926 110.466 236.998c61.338 65.072 142.011 108.647 230.062 124.265s178.79 2.447 258.765-37.56l96.202 63.96c-97.946 62.805-214.122 90.948-329.946 79.927-115.827-11.020-224.612-60.567-308.954-140.716s-139.367-186.267-156.274-301.381c-16.907-115.117 5.28-232.576 63.013-333.59 9.075-15.718 22.105-28.787 37.795-37.91s33.495-13.981 51.645-14.090h720.2c18.326-0.074 36.346 4.698 52.234 13.83 15.891 9.13 29.085 22.298 38.246 38.17 47.91 82.995 71.955 177.619 69.478 273.418-2.477 95.802-31.379 189.053-83.517 269.462l-0.522-0.522zM445.014 272.653c9.658-9.667 21.126-17.338 33.754-22.573 12.624-5.235 26.157-7.926 39.824-7.926s27.2 2.691 39.827 7.926c12.624 5.235 24.096 12.906 33.754 22.573l294.32 441.481-441.478-294.32c-9.67-9.658-17.341-21.13-22.576-33.754-5.232-12.627-7.926-26.16-7.926-39.827s2.694-27.2 7.926-39.824c5.235-12.627 12.906-24.096 22.576-33.757z" />
<glyph unicode="&#xe915;" glyph-name="stripe" horiz-adv-x="2453" d="M632.391 869.669l-165.95-34.855-0.767-539.495c0-99.64 75.886-164.045 176.68-164.045 55.956 0 96.966 10.228 119.577 22.352v128.055c-21.847-8.714-129.157-39.781-129.157 59.48v239.44h129.157v143.208h-129.157l-0.383 145.86zM973.872 674.178l-10.347 49.631h-147.17v-580.411h169.782v390.604c40.243 52.281 108.080 42.053 129.924 35.233v154.574c-22.995 7.956-102.329 22.731-142.188-49.631zM1327.618 948.093l-170.934-35.991v-137.147l170.934 35.991v137.147zM172.101 552.943c0 26.141 22.229 36.371 57.872 36.75 51.739 0 117.659-15.534 169.399-43.189v158.363c-56.339 21.973-112.678 30.687-169.016 30.687-137.972 0-229.954-71.225-229.954-190.188 0-186.397 258.698-156.089 258.698-236.406 0-31.068-27.212-41.296-65.154-41.296-56.339 0-129.157 23.109-186.262 53.798v-151.545c63.237-26.898 127.241-38.264 185.879-38.264 141.42 0 238.769 59.859 238.769 181.093 0 200.418-260.232 164.426-260.232 240.197zM2452.861 426.784c0 172.38-84.32 308.39-246.055 308.39-161.732 0-260.229-136.011-260.229-307.255 0-202.688 116.126-296.267 281.693-296.267 81.251 0 142.188 18.184 188.561 43.57v126.538c-46.373-23.111-99.647-37.128-167.1-37.128-66.303 0-124.557 23.111-132.222 101.912h333.043c0.762 8.716 2.31 43.949 2.31 60.24zM2115.975 490.432c0 75.771 47.14 107.596 89.683 107.596 41.774 0 86.23-31.825 86.23-107.596h-175.914zM1683.28 735.175c-66.686 0-109.613-31.067-133.375-52.662l-8.814 41.675h-149.854v-775.902l170.165 35.614 0.383 190.185c24.528-17.806 60.938-42.432 120.344-42.432 121.875 0 233.020 87.895 233.020 301.57 0.383 195.491-112.295 301.951-231.869 301.951zM1642.653 271.072c-39.857 0-63.619 14.398-80.101 31.825l-1.15 250.047c17.632 19.323 42.16 33.34 81.251 33.34 62.088 0 105.012-68.951 105.012-156.846 0.383-90.548-41.774-158.365-105.012-158.365zM1157.068 143.398h170.934v580.411h-170.934v-580.411z" />
<glyph unicode="&#xe916;" glyph-name="twitter" horiz-adv-x="1229" d="M1228.82 833.767c-45.138-19.76-94.259-33.981-144.86-39.52 52.531 31.67 91.873 81.704 110.638 140.715-49.295-29.758-103.296-50.625-159.611-61.675-23.537 25.534-52.004 45.876-83.625 59.758-31.626 13.882-65.725 21.006-100.178 20.929-139.402 0-251.515-114.668-251.515-255.383 0-19.76 2.36-39.52 6.195-58.532-208.732 11.078-394.896 112.273-518.661 267.21-22.552-39.089-34.369-83.595-34.224-128.889 0-88.621 44.402-166.762 112.111-212.72-39.902 1.595-78.87 12.725-113.734 32.484v-3.144c0-124.099 86.444-226.939 201.653-250.594-21.631-5.704-43.885-8.617-66.234-8.684-16.374 0-31.863 1.649-47.5 3.896 31.863-101.197 124.65-174.7 235.139-177.096-86.444-68.71-194.72-109.128-312.289-109.128-21.095 0-40.567 0.748-60.776 3.144 111.521-72.602 243.842-114.519 386.342-114.519 462.607 0 715.74 388.915 715.74 726.481 0 11.078 0 22.155-0.737 33.233 48.978 36.376 91.904 81.435 126.126 132.033z" />
<glyph unicode="&#xe917;" glyph-name="youtube" horiz-adv-x="1365" d="M1335.177 793.214c-7.76 30.32-22.96 57.964-44.078 80.167-21.111 22.202-47.4 38.184-76.237 46.345-106.189 30.219-532.884 30.219-532.884 30.219s-426.701 0-532.889-30.219c-28.835-8.161-55.125-24.143-76.239-46.345s-36.313-49.847-44.075-80.167c-19.828-113.873-29.449-229.452-28.739-345.217-0.711-115.766 8.911-231.342 28.739-345.216 7.761-30.322 22.96-57.964 44.075-80.168s47.404-38.184 76.239-46.342c106.188-30.219 532.889-30.219 532.889-30.219s426.695 0 532.884 30.219c28.837 8.158 55.125 24.138 76.237 46.342 21.117 22.204 36.318 49.846 44.078 80.168 19.826 113.874 29.451 229.45 28.74 345.216 0.711 115.764-8.914 231.343-28.74 345.217zM545.588 232.875v430.243l354.121-215.12-354.121-215.122z" />
</font>
</defs>
</svg>
